<?xml version="1.0" encoding="UTF-8"?>
<svg id="Layer_1" data-name="Layer 1" xmlns="http://www.w3.org/2000/svg" viewBox="0 0 1081 1081">
  <path d="M240.89,540.54c-36.8,0-57.38-17.67-60.04-46.49h32.2c.24,13.32,11.62,21.79,28.33,21.79,13.07,0,23-4.12,23-13.32,0-8.23-5.33-11.62-17.68-14.04l-23.24-4.36c-23.24-4.12-37.29-16.95-37.29-37.04,0-23.97,20.58-40.68,52.78-40.68s54.72,17.19,57.14,45.04h-32.2c-1.21-12.59-10.65-20.34-24.94-20.34-12.35,0-20.58,4.6-20.58,12.83,0,7.75,5.33,10.9,16.95,13.07l24.94,4.6c25.18,4.84,38.02,16.47,38.02,35.11,0,27.12-20.58,43.83-57.38,43.83Z"/>
  <path d="M398.99,534.73c-8.23,4.12-15.98,5.81-25.91,5.81-26.63,0-43.34-15.25-43.34-44.31v-58.59h-26.15v-28.81h26.15v-38.26h33.42v38.26h37.04v28.81h-37.04v50.84c0,15.01,6.78,21.07,18.88,21.07,6.3,0,12.11-1.45,16.95-4.12v29.3Z"/>
  <path d="M503.37,408.83h33.41v129.29h-30.75v-16.95c-7.02,11.38-21.31,19.37-37.77,19.37-25.91,0-44.79-15.74-44.79-49.39v-82.32h33.65v75.78c0,18.16,8.96,26.15,22.52,26.15,12.1,0,23.73-9.68,23.73-27.12v-74.81Z"/>
  <path d="M612.05,406.41c15.5,0,28.57,6.78,38.25,19.13v-54.96h33.42v167.55h-30.75v-18.64c-10.17,13.56-24.21,21.07-40.92,21.07-34.87,0-57.38-29.3-57.38-67.07s22.51-67.07,57.38-67.07Zm7.5,104.11c16.71,0,30.51-13.08,30.51-37.53s-14.04-36.8-30.51-36.8-30.27,12.59-30.27,37.28,13.81,37.05,30.27,37.05Z"/>
  <path d="M768.93,473.47c0-37.77,28.09-67.07,65.61-67.07s65.62,29.3,65.62,67.07-28.09,67.07-65.62,67.07-65.61-29.54-65.61-67.07Zm96.6,0c0-23.97-14.28-37.04-30.99-37.04s-30.99,13.07-30.99,37.04,14.29,37.29,30.99,37.29,30.99-13.32,30.99-37.29Z"/>
  <path d="M472.72,576.29c17.19,0,29.05,6.78,38.73,20.1v-17.67h30.99v129.29h-30.75v-18.64c-10.17,13.56-24.21,21.07-40.92,21.07-34.87,0-57.38-29.3-57.38-67.07s22.76-67.07,59.32-67.07Zm5.57,104.11c16.71,0,30.51-13.08,30.51-37.53s-14.04-36.8-30.51-36.8-30.27,12.59-30.27,37.28,13.81,37.05,30.27,37.05Z"/>
  <path d="M649.95,578.71h33.41v129.29h-30.75v-16.95c-7.02,11.38-21.31,19.37-37.77,19.37-25.91,0-44.79-15.74-44.79-49.39v-82.32h33.65v75.78c0,18.16,8.96,26.15,22.52,26.15,12.1,0,23.73-9.68,23.73-27.12v-74.81Z"/>
  <path d="M713.61,708.01V408.83h33.9v299.18h-33.9Z"/>
  <path d="M823.5,576.29c17.19,0,29.06,6.78,38.75,20.1v-17.67h30.99v129.29h-30.75v-18.64c-10.17,13.56-24.21,21.07-40.92,21.07-34.87,0-57.38-29.3-57.38-67.07s22.76-67.07,59.32-67.07Zm5.57,104.11c16.71,0,30.51-13.08,30.51-37.53s-14.04-36.8-30.51-36.8-30.27,12.59-30.27,37.28,13.81,37.05,30.27,37.05Z"/>
  <rect x="184.82" y="670.16" width="37.85" height="37.85"/>
</svg>